<?xml version="1.0" encoding="UTF-8"?>
<svg width="24" height="24" viewBox="0 0 24 24" fill="none" xmlns="http://www.w3.org/2000/svg">
  <path d="M16.102 17.93l-2.697 2.607c-.466.467-1.111.662-1.823.662s-1.357-.195-1.824-.662l-4.332-4.363c-.467-.467-.702-1.15-.702-1.863s.235-1.357.702-1.824l4.319-4.38c.467-.467 1.125-.645 1.837-.645s1.357.195 1.823.662l2.697 2.606c.514.515 1.111.744 1.825.744 1.421 0 2.587-1.155 2.587-2.576 0-.708-.287-1.357-.77-1.823l-2.694-2.695c-.915-.914-2.064-1.378-3.387-1.378-1.334 0-2.461.424-3.387 1.378l-4.377 4.357c-.914.914-1.377 2.176-1.377 3.554 0 1.357.424 2.461 1.377 3.387l4.334 4.357c.914.914 2.064 1.357 3.387 1.357s2.473-.424 3.387-1.357l2.697-2.695c.5-.514.77-1.164.77-1.823 0-1.421-1.166-2.576-2.588-2.576-.714 0-1.315.196-1.824.744z" fill="#FFA116"/>
</svg> 